# xmcd CD database file
#
# Track frame offsets:
#	150
#	22012
#	37675
#	62747
#	85085
#	109080
#	123570
#	139885
#	168617
#	196105
#	211527
#	230905
#	248482
#	293042
#	313997
#
# Disc length: 4469 seconds
#
# Revision: 1
# Processed by: cddbd v1.5.2PL0 Copyright (c) Steve Scherf et al.
# Submitted via: CDex 1.51
#
DISCID=d011730f
DTITLE=Al Kooper - Black Coffee
DYEAR=2005
DGENRE=Rock
TTITLE0=My Hands Are Tied
TTITLE1=Am I Wrong
TTITLE2=How My Ever Gonna Get Over You
TTITLE3=Going, Going, Gone
TTITLE4=Keep It To Yourself
TTITLE5=Get Ready
TTITLE6=Imaginary Lover
TTITLE7=Green Onions (Live)
TTITLE8=Another Man's Prize
TTITLE9=Childish Love
TTITLE10=Got My Ion Hue
TTITLE11=Just For A Thrill
TTITLE12=Comin' Back In A Cadillac (Live)
TTITLE13=(I Want You To) Tell Me The Truth
TTITLE14=Test Drive
EXTD=YEAR: 2005
EXTT0=
EXTT1=
EXTT2=
EXTT3=
EXTT4=
EXTT5=
EXTT6=
EXTT7=
EXTT8=
EXTT9=
EXTT10=
EXTT11=
EXTT12=
EXTT13=
EXTT14=
PLAYORDER=
